<svg width="193" height="16" viewBox="0 0 193 16" fill="none" xmlns="http://www.w3.org/2000/svg">
<path d="M1.232 13.5V4.3H3.344L7.152 10.492H6.128L9.856 4.3H11.984L12.016 13.5H9.648L9.632 7.9H9.984L7.168 12.524H6.032L3.12 7.9H3.584V13.5H1.232ZM13.9704 13.5L18.0984 4.3H20.5944L24.7384 13.5H22.2424L18.9304 5.516H19.7784L16.4184 13.5H13.9704ZM16.2264 11.676L16.8824 9.852H21.4264L22.0824 11.676H16.2264ZM26.7108 13.5V4.3H30.9028C31.7561 4.3 32.4868 4.43867 33.0948 4.716C33.7134 4.98267 34.1934 5.36667 34.5348 5.868C34.8761 6.36933 35.0468 6.97733 35.0468 7.692C35.0468 8.38533 34.8761 8.98267 34.5348 9.484C34.1934 9.98533 33.7134 10.3693 33.0948 10.636C32.4868 10.9027 31.7561 11.036 30.9028 11.036H28.1028L29.2388 9.964V13.5H26.7108ZM32.5028 13.5L30.1828 10.156H32.8708L35.2228 13.5H32.5028ZM29.2388 10.252L28.3108 9.116H30.7268C31.3134 9.116 31.7561 8.99333 32.0548 8.748C32.3534 8.492 32.5028 8.14 32.5028 7.692C32.5028 7.23333 32.3534 6.88133 32.0548 6.636C31.7561 6.39067 31.3134 6.268 30.7268 6.268H28.3108L29.2388 5.132V10.252ZM40.1436 11.436L39.9996 8.62L44.1276 4.3H46.9116L42.9116 8.588L41.5036 10.012L40.1436 11.436ZM37.8876 13.5V4.3H40.3836V13.5H37.8876ZM44.1756 13.5L41.0556 9.66L42.7036 7.9L47.1196 13.5H44.1756ZM50.1019 13.628C49.6539 13.628 49.2859 13.484 48.9979 13.196C48.7099 12.908 48.5659 12.5667 48.5659 12.172C48.5659 11.7667 48.7099 11.4307 48.9979 11.164C49.2859 10.8867 49.6539 10.748 50.1019 10.748C50.5499 10.748 50.9125 10.8867 51.1899 11.164C51.4779 11.4307 51.6219 11.7667 51.6219 12.172C51.6219 12.5667 51.4779 12.908 51.1899 13.196C50.9125 13.484 50.5499 13.628 50.1019 13.628ZM54.3508 13.5V4.3H58.6868C59.7428 4.3 60.6601 4.48667 61.4388 4.86C62.2281 5.23333 62.8361 5.76667 63.2628 6.46C63.7001 7.14267 63.9188 7.95867 63.9188 8.908C63.9188 9.84667 63.7001 10.6627 63.2628 11.356C62.8361 12.0387 62.2281 12.5667 61.4388 12.94C60.6601 13.3133 59.7428 13.5 58.6868 13.5H54.3508ZM56.8788 11.516H58.6068C59.1721 11.516 59.6574 11.4147 60.0628 11.212C60.4788 11.0093 60.7988 10.716 61.0228 10.332C61.2468 9.93733 61.3588 9.46267 61.3588 8.908C61.3588 8.34267 61.2468 7.868 61.0228 7.484C60.7988 7.08933 60.4788 6.79067 60.0628 6.588C59.6574 6.38533 59.1721 6.284 58.6068 6.284H56.8788V11.516ZM68.8301 7.916H73.2781V9.756H68.8301V7.916ZM69.0861 11.564H73.9981V13.5H66.5901V4.3H73.8221V6.236H69.0861V11.564ZM79.3773 13.5L75.3773 4.3H78.0653L81.4573 12.38H79.9053L83.3613 4.3H85.8733L81.8733 13.5H79.3773Z" fill="#2D2E32"/>
<path d="M95.0042 11.432C94.6122 11.432 94.2482 11.34 93.9122 11.156C93.5762 10.964 93.3082 10.704 93.1082 10.376C92.9082 10.048 92.8082 9.684 92.8082 9.284C92.8082 8.916 92.9002 8.568 93.0842 8.24C93.2762 7.912 93.5362 7.648 93.8642 7.448C94.2002 7.24 94.5802 7.136 95.0042 7.136C95.3962 7.136 95.7562 7.232 96.0842 7.424C96.4122 7.608 96.6762 7.86 96.8762 8.18C97.0842 8.5 97.1882 8.868 97.1882 9.284C97.1882 9.676 97.0882 10.036 96.8882 10.364C96.6962 10.692 96.4322 10.952 96.0962 11.144C95.7682 11.336 95.4042 11.432 95.0042 11.432ZM105.248 12.5V7.388H104.072V6.452H105.584L105.248 6.764V5.804C105.248 5.092 105.428 4.552 105.788 4.184C106.148 3.808 106.676 3.62 107.372 3.62C107.54 3.62 107.716 3.632 107.9 3.656C108.084 3.68 108.236 3.72 108.356 3.776V4.76C108.26 4.72 108.14 4.688 107.996 4.664C107.86 4.632 107.72 4.616 107.576 4.616C107.344 4.616 107.144 4.664 106.976 4.76C106.808 4.848 106.676 4.984 106.58 5.168C106.492 5.352 106.448 5.588 106.448 5.876V6.692L106.268 6.452H108.092V7.388H106.46V12.5H105.248ZM109.623 12.5V7.952C109.623 7.704 109.615 7.456 109.599 7.208C109.591 6.952 109.575 6.7 109.551 6.452H110.727L110.859 8.012H110.667C110.747 7.636 110.883 7.324 111.075 7.076C111.267 6.828 111.499 6.644 111.771 6.524C112.051 6.404 112.343 6.344 112.647 6.344C112.775 6.344 112.883 6.352 112.971 6.368C113.059 6.376 113.147 6.392 113.235 6.416L113.223 7.496C113.087 7.44 112.967 7.408 112.863 7.4C112.767 7.384 112.647 7.376 112.503 7.376C112.151 7.376 111.851 7.456 111.603 7.616C111.355 7.768 111.167 7.976 111.039 8.24C110.911 8.504 110.847 8.788 110.847 9.092V12.5H109.623ZM117.424 12.608C116.448 12.608 115.68 12.332 115.12 11.78C114.56 11.228 114.28 10.464 114.28 9.488C114.28 8.856 114.4 8.304 114.64 7.832C114.888 7.36 115.228 6.996 115.66 6.74C116.1 6.476 116.608 6.344 117.184 6.344C117.752 6.344 118.228 6.464 118.612 6.704C118.996 6.944 119.288 7.284 119.488 7.724C119.688 8.156 119.788 8.668 119.788 9.26V9.644H115.228V8.948H118.96L118.756 9.104C118.756 8.504 118.62 8.04 118.348 7.712C118.084 7.376 117.7 7.208 117.196 7.208C116.636 7.208 116.204 7.404 115.9 7.796C115.596 8.18 115.444 8.712 115.444 9.392V9.512C115.444 10.224 115.616 10.76 115.96 11.12C116.312 11.48 116.808 11.66 117.448 11.66C117.8 11.66 118.128 11.612 118.432 11.516C118.744 11.412 119.04 11.244 119.32 11.012L119.716 11.84C119.436 12.088 119.096 12.28 118.696 12.416C118.296 12.544 117.872 12.608 117.424 12.608ZM124.515 12.608C123.539 12.608 122.771 12.332 122.211 11.78C121.651 11.228 121.371 10.464 121.371 9.488C121.371 8.856 121.491 8.304 121.731 7.832C121.979 7.36 122.319 6.996 122.751 6.74C123.191 6.476 123.699 6.344 124.275 6.344C124.843 6.344 125.319 6.464 125.703 6.704C126.087 6.944 126.379 7.284 126.579 7.724C126.779 8.156 126.879 8.668 126.879 9.26V9.644H122.319V8.948H126.051L125.847 9.104C125.847 8.504 125.711 8.04 125.439 7.712C125.175 7.376 124.791 7.208 124.287 7.208C123.727 7.208 123.295 7.404 122.991 7.796C122.687 8.18 122.535 8.712 122.535 9.392V9.512C122.535 10.224 122.707 10.76 123.051 11.12C123.403 11.48 123.899 11.66 124.539 11.66C124.891 11.66 125.219 11.612 125.523 11.516C125.835 11.412 126.131 11.244 126.411 11.012L126.807 11.84C126.527 12.088 126.187 12.28 125.787 12.416C125.387 12.544 124.963 12.608 124.515 12.608ZM128.81 12.5V3.668H130.022V12.5H128.81ZM134.654 12.608C134.118 12.608 133.65 12.484 133.25 12.236C132.85 11.988 132.538 11.628 132.314 11.156C132.098 10.684 131.99 10.124 131.99 9.476C131.99 8.82 132.098 8.26 132.314 7.796C132.538 7.332 132.85 6.976 133.25 6.728C133.65 6.472 134.118 6.344 134.654 6.344C135.182 6.344 135.642 6.476 136.034 6.74C136.426 7.004 136.686 7.364 136.814 7.82H136.682L136.802 6.452H137.978C137.954 6.7 137.93 6.948 137.906 7.196C137.89 7.436 137.882 7.672 137.882 7.904V12.5H136.67V11.156H136.802C136.674 11.604 136.41 11.96 136.01 12.224C135.618 12.48 135.166 12.608 134.654 12.608ZM134.954 11.66C135.474 11.66 135.89 11.476 136.202 11.108C136.522 10.74 136.682 10.196 136.682 9.476C136.682 8.756 136.522 8.216 136.202 7.856C135.89 7.488 135.474 7.304 134.954 7.304C134.426 7.304 134.002 7.488 133.682 7.856C133.37 8.216 133.214 8.756 133.214 9.476C133.214 10.196 133.37 10.74 133.682 11.108C133.994 11.476 134.418 11.66 134.954 11.66ZM140.191 12.5V7.904C140.191 7.672 140.179 7.436 140.155 7.196C140.139 6.948 140.119 6.7 140.095 6.452H141.271L141.379 7.724H141.235C141.419 7.276 141.703 6.936 142.087 6.704C142.471 6.464 142.915 6.344 143.419 6.344C144.131 6.344 144.667 6.54 145.027 6.932C145.395 7.324 145.579 7.932 145.579 8.756V12.5H144.367V8.828C144.367 8.292 144.259 7.908 144.043 7.676C143.835 7.436 143.515 7.316 143.083 7.316C142.571 7.316 142.163 7.476 141.859 7.796C141.555 8.108 141.403 8.532 141.403 9.068V12.5H140.191ZM150.496 12.608C149.888 12.608 149.356 12.484 148.9 12.236C148.452 11.98 148.104 11.616 147.856 11.144C147.616 10.664 147.496 10.096 147.496 9.44C147.496 8.792 147.62 8.236 147.868 7.772C148.116 7.308 148.464 6.956 148.912 6.716C149.36 6.468 149.888 6.344 150.496 6.344C150.888 6.344 151.268 6.412 151.636 6.548C152.004 6.676 152.308 6.86 152.548 7.1L152.152 7.952C151.928 7.736 151.676 7.576 151.396 7.472C151.116 7.36 150.844 7.304 150.58 7.304C150.004 7.304 149.552 7.488 149.224 7.856C148.896 8.224 148.732 8.756 148.732 9.452C148.732 10.156 148.896 10.696 149.224 11.072C149.552 11.448 150.004 11.636 150.58 11.636C150.836 11.636 151.104 11.588 151.384 11.492C151.664 11.388 151.92 11.224 152.152 11L152.548 11.852C152.3 12.092 151.988 12.28 151.612 12.416C151.244 12.544 150.872 12.608 150.496 12.608ZM157.051 12.608C156.075 12.608 155.307 12.332 154.747 11.78C154.187 11.228 153.907 10.464 153.907 9.488C153.907 8.856 154.027 8.304 154.267 7.832C154.515 7.36 154.855 6.996 155.287 6.74C155.727 6.476 156.235 6.344 156.811 6.344C157.379 6.344 157.855 6.464 158.239 6.704C158.623 6.944 158.915 7.284 159.115 7.724C159.315 8.156 159.415 8.668 159.415 9.26V9.644H154.855V8.948H158.587L158.383 9.104C158.383 8.504 158.247 8.04 157.975 7.712C157.711 7.376 157.327 7.208 156.823 7.208C156.263 7.208 155.831 7.404 155.527 7.796C155.223 8.18 155.071 8.712 155.071 9.392V9.512C155.071 10.224 155.243 10.76 155.587 11.12C155.939 11.48 156.435 11.66 157.075 11.66C157.427 11.66 157.755 11.612 158.059 11.516C158.371 11.412 158.667 11.244 158.947 11.012L159.343 11.84C159.063 12.088 158.723 12.28 158.323 12.416C157.923 12.544 157.499 12.608 157.051 12.608ZM168.313 12.608C167.785 12.608 167.325 12.476 166.933 12.212C166.541 11.948 166.281 11.588 166.153 11.132H166.285V12.5H165.085V3.668H166.297V7.796H166.153C166.289 7.348 166.549 6.996 166.933 6.74C167.325 6.476 167.785 6.344 168.313 6.344C168.849 6.344 169.317 6.472 169.717 6.728C170.117 6.976 170.425 7.336 170.641 7.808C170.865 8.272 170.977 8.832 170.977 9.488C170.977 10.136 170.865 10.696 170.641 11.168C170.425 11.632 170.113 11.988 169.705 12.236C169.305 12.484 168.841 12.608 168.313 12.608ZM168.013 11.66C168.533 11.66 168.953 11.48 169.273 11.12C169.593 10.752 169.753 10.208 169.753 9.488C169.753 8.76 169.593 8.216 169.273 7.856C168.953 7.488 168.533 7.304 168.013 7.304C167.485 7.304 167.061 7.488 166.741 7.856C166.429 8.216 166.273 8.756 166.273 9.476C166.273 10.196 166.429 10.74 166.741 11.108C167.061 11.476 167.485 11.66 168.013 11.66ZM175.253 12.608C174.717 12.608 174.249 12.484 173.849 12.236C173.449 11.988 173.137 11.628 172.913 11.156C172.697 10.684 172.589 10.124 172.589 9.476C172.589 8.82 172.697 8.26 172.913 7.796C173.137 7.332 173.449 6.976 173.849 6.728C174.249 6.472 174.717 6.344 175.253 6.344C175.781 6.344 176.241 6.476 176.633 6.74C177.025 7.004 177.285 7.364 177.413 7.82H177.281L177.401 6.452H178.577C178.553 6.7 178.529 6.948 178.505 7.196C178.489 7.436 178.481 7.672 178.481 7.904V12.5H177.269V11.156H177.401C177.273 11.604 177.009 11.96 176.609 12.224C176.217 12.48 175.765 12.608 175.253 12.608ZM175.553 11.66C176.073 11.66 176.489 11.476 176.801 11.108C177.121 10.74 177.281 10.196 177.281 9.476C177.281 8.756 177.121 8.216 176.801 7.856C176.489 7.488 176.073 7.304 175.553 7.304C175.025 7.304 174.601 7.488 174.281 7.856C173.969 8.216 173.813 8.756 173.813 9.476C173.813 10.196 173.969 10.74 174.281 11.108C174.593 11.476 175.017 11.66 175.553 11.66ZM182.866 12.608C182.362 12.608 181.898 12.544 181.474 12.416C181.05 12.288 180.698 12.108 180.418 11.876L180.79 11.048C181.086 11.272 181.414 11.44 181.774 11.552C182.134 11.664 182.502 11.72 182.878 11.72C183.318 11.72 183.65 11.644 183.874 11.492C184.098 11.332 184.21 11.116 184.21 10.844C184.21 10.636 184.138 10.468 183.994 10.34C183.858 10.212 183.63 10.116 183.31 10.052L182.158 9.824C181.646 9.712 181.258 9.52 180.994 9.248C180.73 8.976 180.598 8.628 180.598 8.204C180.598 7.844 180.694 7.524 180.886 7.244C181.086 6.964 181.366 6.744 181.726 6.584C182.094 6.424 182.522 6.344 183.01 6.344C183.458 6.344 183.874 6.408 184.258 6.536C184.642 6.664 184.962 6.848 185.218 7.088L184.834 7.892C184.586 7.684 184.306 7.524 183.994 7.412C183.682 7.292 183.366 7.232 183.046 7.232C182.598 7.232 182.266 7.316 182.05 7.484C181.834 7.652 181.726 7.872 181.726 8.144C181.726 8.352 181.79 8.524 181.918 8.66C182.054 8.788 182.266 8.888 182.554 8.96L183.706 9.188C184.25 9.3 184.658 9.484 184.93 9.74C185.202 9.996 185.338 10.34 185.338 10.772C185.338 11.148 185.234 11.476 185.026 11.756C184.818 12.036 184.53 12.248 184.162 12.392C183.794 12.536 183.362 12.608 182.866 12.608ZM190.102 12.608C189.126 12.608 188.358 12.332 187.798 11.78C187.238 11.228 186.958 10.464 186.958 9.488C186.958 8.856 187.078 8.304 187.318 7.832C187.566 7.36 187.906 6.996 188.338 6.74C188.778 6.476 189.286 6.344 189.862 6.344C190.43 6.344 190.906 6.464 191.29 6.704C191.674 6.944 191.966 7.284 192.166 7.724C192.366 8.156 192.466 8.668 192.466 9.26V9.644H187.906V8.948H191.638L191.434 9.104C191.434 8.504 191.298 8.04 191.026 7.712C190.762 7.376 190.378 7.208 189.874 7.208C189.314 7.208 188.882 7.404 188.578 7.796C188.274 8.18 188.122 8.712 188.122 9.392V9.512C188.122 10.224 188.294 10.76 188.638 11.12C188.99 11.48 189.486 11.66 190.126 11.66C190.478 11.66 190.806 11.612 191.11 11.516C191.422 11.412 191.718 11.244 191.998 11.012L192.394 11.84C192.114 12.088 191.774 12.28 191.374 12.416C190.974 12.544 190.55 12.608 190.102 12.608Z" fill="#767676"/>
</svg>
